<svg width="22" height="19" viewBox="0 0 22 19" fill="none" xmlns="http://www.w3.org/2000/svg">
<path fill-rule="evenodd" clip-rule="evenodd" d="M20.8 11C20.8 13.641 19.7567 16.0366 18.0569 17.8H3.94306C2.2433 16.0366 1.2 13.641 1.2 11C1.2 5.58761 5.58761 1.2 11 1.2C16.4124 1.2 20.8 5.58761 20.8 11ZM22 11C22 14.1521 20.6742 16.9945 18.5499 19H3.45012C1.32578 16.9945 0 14.1521 0 11C0 4.92487 4.92487 0 11 0C17.0751 0 22 4.92487 22 11ZM6.30282 3.33101C6.01584 3.49669 5.91752 3.86365 6.0832 4.15062L6.70653 5.23026C6.87222 5.51723 7.23917 5.61556 7.52615 5.44987C7.81312 5.28419 7.91145 4.91723 7.74576 4.63026L7.12243 3.55062C6.95675 3.26365 6.58979 3.16532 6.30282 3.33101ZM3.36727 7.51938C3.0803 7.3537 2.98197 6.98674 3.14766 6.69977C3.31334 6.41279 3.6803 6.31447 3.96727 6.48015L5.04691 7.10348C5.33388 7.26917 5.43221 7.63612 5.26652 7.9231C5.10084 8.21007 4.73389 8.3084 4.44691 8.14271L3.36727 7.51938ZM3.0666 15.1606C2.90092 14.8737 2.99924 14.5067 3.28622 14.341L4.36585 13.7177C4.65283 13.552 5.01978 13.6503 5.18547 13.9373C5.35116 14.2243 5.25283 14.5912 4.96585 14.7569L3.88622 15.3802C3.59924 15.5459 3.23229 15.4476 3.0666 15.1606ZM2.63223 11.7865C2.30086 11.7865 2.03223 11.5179 2.03223 11.1865C2.03223 10.8552 2.30086 10.5865 2.63223 10.5865H3.87888C4.21026 10.5865 4.47889 10.8552 4.47889 11.1865C4.47889 11.5179 4.21026 11.7865 3.87889 11.7865H2.63223ZM15.7294 3.33125C16.0164 3.49694 16.1147 3.86389 15.949 4.15087L15.3257 5.2305C15.16 5.51748 14.7931 5.6158 14.5061 5.45012C14.2191 5.28443 14.1208 4.91748 14.2865 4.6305L14.9098 3.55087C15.0755 3.26389 15.4424 3.16556 15.7294 3.33125ZM18.665 7.51938C18.9519 7.3537 19.0503 6.98674 18.8846 6.69977C18.7189 6.41279 18.3519 6.31447 18.065 6.48015L16.9853 7.10348C16.6983 7.26917 16.6 7.63612 16.7657 7.9231C16.9314 8.21007 17.2983 8.3084 17.5853 8.14271L18.665 7.51938ZM18.9656 15.1606C19.1313 14.8737 19.033 14.5067 18.746 14.341L17.6664 13.7177C17.3794 13.552 17.0124 13.6503 16.8468 13.9373C16.6811 14.2243 16.7794 14.5912 17.0664 14.7569L18.146 15.3802C18.433 15.5459 18.7999 15.4476 18.9656 15.1606ZM19.4 11.7868C19.7314 11.7868 20 11.5181 20 11.1868C20 10.8554 19.7314 10.5868 19.4 10.5868H18.1533C17.822 10.5868 17.5533 10.8554 17.5533 11.1868C17.5533 11.5181 17.822 11.7868 18.1533 11.7868H19.4ZM12.8 11C12.8 11.9941 11.9941 12.8 11 12.8C10.0059 12.8 9.2 11.9941 9.2 11C9.2 10.7875 9.23633 10.586 9.30211 10.3999C9.41301 10.0861 9.5856 9.57663 9.79796 8.94972L9.79799 8.94964C10.1295 7.97088 10.558 6.70598 11 5.45305C11.442 6.70597 11.8705 7.97087 12.202 8.94962C12.4144 9.57657 12.587 10.0861 12.6979 10.3999C12.7637 10.586 12.8 10.7875 12.8 11ZM8.64698 8.60682C9.10088 7.26705 9.7507 5.34898 10.3605 3.68222L10.3638 3.67332L10.4074 3.55434C10.4557 3.42296 10.5037 3.2933 10.5513 3.16578C10.7091 2.74291 11.2909 2.74291 11.4487 3.16578C11.4963 3.2933 11.5443 3.42296 11.5926 3.55434L11.6362 3.67332L11.6395 3.68222C12.2493 5.34898 12.8991 7.26706 13.353 8.60683C13.5599 9.21761 13.7262 9.7082 13.8293 10C13.9398 10.3128 14 10.6494 14 11C14 12.6569 12.6569 14 11 14C9.34315 14 8 12.6569 8 11C8 10.6494 8.06015 10.3128 8.17071 10C8.27382 9.70826 8.43998 9.21782 8.64684 8.60723L8.64698 8.60682Z" fill="#445161"/>
</svg>
